<?xml version="1.0" encoding="UTF-8"?>
<svg width="68px" height="68px" viewBox="0 0 68 68" version="1.1" xmlns="http://www.w3.org/2000/svg" xmlns:xlink="http://www.w3.org/1999/xlink">
    <!-- Generator: Sketch 49.3 (51167) - http://www.bohemiancoding.com/sketch -->
    <title>1-我的保单@svg</title>
    <desc>Created with Sketch.</desc>
    <defs></defs>
    <g id="1-我的保单" stroke="none" stroke-width="1" fill="none" fill-rule="evenodd">
        <rect id="Rectangle-54-Copy" stroke="#979797" opacity="0" x="0.5" y="0.5" width="67" height="67"></rect>
        <rect id="Rectangle-52" fill="#FFFFFF" x="20" y="25" width="29" height="4" rx="2"></rect>
        <rect id="Rectangle-52-Copy" fill="#FFFFFF" x="20" y="36" width="29" height="4" rx="2"></rect>
        <rect id="Rectangle-52-Copy-2" fill="#FFFFFF" x="20" y="47" width="16" height="4" rx="2"></rect>
        <path d="M25.2192156,13.1428571 C25.5651227,8.58798191 29.3642637,5 34,5 C38.6357363,5 42.4348773,8.58798191 42.7807844,13.1428571 L53,13.1428571 C54.1045695,13.1428571 55,14.0382876 55,15.1428571 L55,60 C55,61.1045695 54.1045695,62 53,62 L15,62 C13.8954305,62 13,61.1045695 13,60 L13,15.1428571 C13,14.0382876 13.8954305,13.1428571 15,13.1428571 L25.2192156,13.1428571 Z M34,16.3418367 C35.3896197,16.3418367 36.516129,15.2134116 36.516129,13.8214286 C36.516129,12.4294456 35.3896197,11.3010204 34,11.3010204 C32.6103803,11.3010204 31.483871,12.4294456 31.483871,13.8214286 C31.483871,15.2134116 32.6103803,16.3418367 34,16.3418367 Z" id="Combined-Shape" fill="#F77777"></path>
        <rect id="Rectangle-52" fill="#FFFFFF" x="20" y="25" width="29" height="4" rx="2"></rect>
        <rect id="Rectangle-52-Copy" fill="#FFFFFF" x="20" y="36" width="29" height="4" rx="2"></rect>
        <rect id="Rectangle-52-Copy-2" fill="#FFFFFF" x="20" y="47" width="16" height="4" rx="2"></rect>
    </g>
</svg>