<?xml version="1.0" encoding="UTF-8"?>
<svg width="40px" height="40px" viewBox="0 0 40 40" version="1.1" xmlns="http://www.w3.org/2000/svg" xmlns:xlink="http://www.w3.org/1999/xlink">
    <!-- Generator: Sketch 49.3 (51167) - http://www.bohemiancoding.com/sketch -->
    <title>16-icon2@svg</title>
    <desc>Created with Sketch.</desc>
    <defs>
        <polygon id="path-1" points="0 0 38 0 38 30 0 30"></polygon>
    </defs>
    <g id="16-icon2" stroke="none" stroke-width="1" fill="none" fill-rule="evenodd">
        <g id="Group-8">
            <rect id="Rectangle" x="0" y="0" width="40" height="40"></rect>
            <g id="Page-1" transform="translate(1.000000, 5.000000)">
                <mask id="mask-2" fill="white">
                    <use xlink:href="#path-1"></use>
                </mask>
                <g id="Clip-2"></g>
                <path d="M23.2043128,23.1916823 C22.1859806,24.9313246 20.4964124,27.8219053 19.4950677,29.5350787 C19.1314432,30.157553 18.2283506,30.1539021 17.8665627,29.5305151 L9.51467793,15.1351125 C9.15472644,14.51492 8.25530682,14.5067056 7.88892763,15.1227908 C6.85590357,16.8596949 5.82333863,18.6235242 4.79031457,20.3786827 C4.42301713,21.0029824 4.87525211,21.7865516 5.60296016,21.7865516 L8.85997024,21.7865516 C9.58813742,21.7865516 10.0408315,22.5737716 9.67123847,23.197615 L5.93720084,29.5022208 C5.57082164,30.1210443 4.66910642,30.1160243 4.30915492,29.4940064 L0.125177925,22.2579709 C-0.043319777,21.9663572 -0.0414832898,21.6076587 0.129310021,21.3183268 L12.4278058,0.461787052 C12.7928076,-0.157036367 13.6926863,-0.152929132 14.0540152,0.468176084 C15.659105,3.22641262 17.2793459,5.96685113 18.8610205,8.72508767 C19.2195946,9.35030012 20.1213098,9.35805823 20.487689,8.73695301 L25.3456568,0.510161154 C25.7115769,-0.110031343 26.6151286,-0.105011389 26.974621,0.518831983 L37.87555,19.4422331 C38.0440477,19.7347595 38.041293,20.0948271 37.868204,20.3846153 L32.4179691,29.5204752 C32.052049,30.1342787 31.1567615,30.1310842 30.7949735,29.5145426 L22.4104912,15.2323171 C22.0454893,14.6102992 21.139642,14.6139501 20.7796905,15.2391625 L17.8169775,20.3859844 C17.4579443,21.0098278 17.9110975,21.7865516 18.6342143,21.7865516 L22.3893716,21.7865516 C23.1157022,21.7865516 23.5693146,22.567839 23.2043128,23.1916823" id="Fill-1" fill="#C8152D" mask="url(#mask-2)"></path>
            </g>
        </g>
    </g>
</svg>