<?xml version="1.0" encoding="UTF-8"?>
<svg width="68px" height="68px" viewBox="0 0 68 68" version="1.1" xmlns="http://www.w3.org/2000/svg" xmlns:xlink="http://www.w3.org/1999/xlink">
    <!-- Generator: Sketch 49.3 (51167) - http://www.bohemiancoding.com/sketch -->
    <title>3-家庭成员@svg</title>
    <desc>Created with Sketch.</desc>
    <defs></defs>
    <g id="3-家庭成员" stroke="none" stroke-width="1" fill="none" fill-rule="evenodd">
        <g id="Group-5">
            <rect id="Rectangle-54-Copy" stroke="#979797" opacity="0" x="0.5" y="0.5" width="67" height="67"></rect>
            <rect id="Rectangle-52" fill="#FFFFFF" x="20" y="25" width="29" height="4" rx="2"></rect>
            <rect id="Rectangle-52-Copy" fill="#FFFFFF" x="20" y="36" width="29" height="4" rx="2"></rect>
            <rect id="Rectangle-52-Copy-2" fill="#FFFFFF" x="20" y="47" width="16" height="4" rx="2"></rect>
        </g>
        <g id="Group-16" transform="translate(14.000000, 3.000000)" fill="#FA7C7C">
            <circle id="Oval-4" cx="14" cy="6" r="5"></circle>
            <path d="M26.5,0 L26.5,0 C28.9852814,-4.56538782e-16 31,2.01471863 31,4.5 L31,11 L22,11 L22,4.5 C22,2.01471863 24.0147186,4.56538782e-16 26.5,0 Z" id="Rectangle-58"></path>
            <path d="M6.94576132,59.3774326 C5.91835793,57.6752986 -5.07070964,25.7201046 2.85198102,18.1479367 C10.7746717,10.5757689 35.3841548,10.9166114 39.8469648,22.1235985 C44.3097748,33.3305856 34.5755089,61.9731736 31.7320587,61.9731736 C28.8886084,61.9731736 29.2157784,58.8441811 29.2157784,54.6957306 C29.2157784,50.5472802 29.2157784,50.1592336 28.0181199,49.7692664 C26.8204615,49.3792991 25.9964725,50.8631592 25.5721931,54.6957306 C25.1479136,58.5283021 24.254678,61.9731736 22.5116858,61.9731736 C20.7686936,61.9731736 22.3712428,57.0097128 20.2544536,57.0097128 C18.1376643,57.0097128 19.9780988,61.9731736 17.9781495,61.9731736 C15.9782001,61.9731736 15.1854866,54.8107478 13.9448352,51.4948322 C13.4068927,50.057062 12.7654272,49.6182328 11.9120601,49.8987769 C11.0586929,50.179321 10.7634552,51.6224985 10.7634552,53.2616385 C10.7634552,56.519745 11.6060027,60.2656055 10.7634552,61.5560347 C9.92090769,62.846464 7.97316471,61.0795667 6.94576132,59.3774326 Z M21.2081174,26.8874537 C18.2002286,22.9314403 15.4471285,22.0241022 12.948817,24.1654395 C10.4505055,26.3067768 12.7240595,31.4921577 19.769479,39.7215822 C27.6462389,32.2737068 30.5447283,27.450091 28.4649472,25.2507348 C26.385166,23.0513786 23.9662228,23.5969515 21.2081174,26.8874537 Z" id="Combined-Shape"></path>
        </g>
    </g>
</svg>