<?xml version="1.0" encoding="UTF-8"?>
<svg width="68px" height="68px" viewBox="0 0 68 68" version="1.1" xmlns="http://www.w3.org/2000/svg" xmlns:xlink="http://www.w3.org/1999/xlink">
    <!-- Generator: Sketch 49.3 (51167) - http://www.bohemiancoding.com/sketch -->
    <title>4-VIP服务@svg</title>
    <desc>Created with Sketch.</desc>
    <defs>
        <polygon id="path-1" points="0.146457143 0.0218351567 17.8561714 0.0218351567 17.8561714 3 0.146457143 3"></polygon>
    </defs>
    <g id="4-VIP服务" stroke="none" stroke-width="1" fill="none" fill-rule="evenodd">
        <g id="Page-1" transform="translate(7.000000, 11.000000)">
            <g id="Group-3" fill="#FF787D">
                <path d="M29.5640902,2.38578108 C32.3776663,5.17829459 34.5561554,8.37126757 35.5128946,12.3110514 C35.541362,12.4275919 35.5856772,12.5405649 35.6282315,12.6731595 C36.3724924,12.3642676 37.0921011,12.0384297 37.8304924,11.7643216 C39.9984163,10.9598351 42.2423511,10.5424297 44.5493837,10.4811865 C44.6641337,10.4782135 44.828775,10.5754297 44.8924598,10.6765108 C46.3850902,13.0367541 47.3749924,15.5988622 47.8201989,18.3667 C48.3484598,21.6515378 48.1318728,24.8855378 47.1049924,28.0553216 C47.0803402,28.1323216 47.0686011,28.2134838 47.0407207,28.3371595 C47.2358837,28.3998892 47.4322207,28.4712405 47.6332533,28.5259432 C49.8181989,29.1205378 51.8141446,30.1132135 53.6563076,31.4373757 C53.8831663,31.6002946 53.9779598,31.7364568 53.866438,32.0319703 C51.5840576,38.0968351 47.3148293,41.9498081 41.190525,43.7442946 C41.1664598,43.7514297 44.8924598,42.8238042 49.139937,46.4432553 C45.6642408,46.2823634 42.9466387,48.2758289 39.5823749,48.4308865 C35.554087,48.6165487 31.1584326,46.978859 30.9963684,46.8408641 C27.7301639,44.0597485 23.0437153,46.4550683 22.7442719,46.6884697 C20.9767044,48.0662011 15.9460156,48.8092238 12.999106,47.9068671 C7.69564751,46.2829248 4.8509337,46.2127597 5.24952547,46.4432553 C5.04438416,46.3873634 12.3774163,43.6539162 12.1749163,43.5885108 C6.33147065,41.694727 2.25212283,37.8985378 0.0554380435,32.0649703 C-0.0552032609,31.7709432 -0.00560543478,31.6190243 0.249133696,31.4364838 C2.14940543,30.0742676 4.214025,29.0729703 6.46500326,28.4679703 C6.55568804,28.4435919 6.64637283,28.4207 6.7358837,28.3924568 C6.6616337,27.5722135 6.4321337,26.8242135 6.27629674,26.0607541 C5.16107935,20.5970243 6.07497065,15.4942135 8.96309022,10.7481595 C9.08723152,10.5439162 9.20814457,10.465727 9.47198152,10.4752405 C12.4446228,10.5813757 15.2734598,11.2708081 17.9626011,12.5554297 C18.0571011,12.6003216 18.1577641,12.6333216 18.2901228,12.6856459 C18.3907859,12.313727 18.4805902,11.9611324 18.5806663,11.6118081 C19.5212641,8.34242973 21.2985685,5.57310541 23.614112,3.15251081 C24.6092967,2.11167297 25.7224598,1.18618649 26.7810359,0.207186486 C26.8288728,0.162889189 26.8655576,0.106997297 26.907525,0.0564567568 C27.8487098,0.830618919 28.7426446,1.57088919 29.5640902,2.38578108 Z" id="Fill-1"></path>
            </g>
            <path d="M10.5255147,30.1538957 C13.9791379,29.2916564 17.4738098,28.6770718 21.0147706,28.3890517 C22.948427,28.2315359 24.8867413,28.1332024 26.8244734,28.0479193 C30.0320954,27.9061855 33.2306926,28.0858566 36.4135689,28.4943657 C38.8534927,28.8078797 41.2800247,29.2312601 43.568272,30.2279494 C44.1263598,30.4710517 44.6698914,30.7930636 45.1525776,31.1718298 C46.1910227,31.9861164 46.2707911,33.0878161 45.4154641,34.1233532 C44.7220028,34.9628301 43.8174756,35.4930421 42.8652037,35.935543 C40.8715755,36.861517 38.7644083,37.3698771 36.6156101,37.6809631 C35.2487753,37.8785406 33.8688399,37.9826406 32.4932714,38.1067715 C32.2233979,38.1310514 32.1375159,38.2651978 32.0740505,38.5007126 C31.7060677,39.8731331 31.3179973,41.2394835 30.9634063,42.6158494 C30.8842201,42.9223829 30.7529225,43.007666 30.4676193,42.9994715 C29.8047263,42.9812616 29.141251,42.9940086 28.4183861,42.9940086 C28.5007747,42.6829226 28.5665691,42.4219138 28.6393505,42.1630296 C29.2550812,39.9723771 29.8754698,37.7826351 30.4836313,35.5895546 C30.5564127,35.3264214 30.654522,35.2235354 30.9412807,35.2147339 C33.1063819,35.1470537 35.2738121,35.099708 37.4348376,34.9543322 C39.4887288,34.8153298 41.5417466,34.5898304 43.5059711,33.8841963 C43.964494,33.7193966 44.4183588,33.4902552 44.8166187,33.2037526 C45.4812584,32.7248319 45.5025106,32.1618421 44.928702,31.5779109 C44.2509616,30.8874517 43.375838,30.5790972 42.5047902,30.2801511 C40.6800148,29.6540336 38.7935208,29.3393056 36.8910149,29.1098607 C33.3980898,28.6883013 29.8900261,28.525626 26.3805068,28.638831 C23.4343156,28.733826 20.4884155,28.940205 17.5506669,29.1948403 C14.3439183,29.472238 11.1886989,30.1120129 8.06841452,30.9317625 C8.0215433,30.8929147 8.01077165,30.8655998 8,30.8379814 C8.84164415,30.6091435 9.68008593,30.3651307 10.5255147,30.1538957 Z" id="Fill-4" fill="#FFFFFF"></path>
            <path d="M15,35.0547849 C16.0097142,34.9370476 16.0091287,34.9373286 16.311838,35.8061686 C16.7181828,36.9723026 17.1254059,38.1387176 17.5323362,39.3045705 C17.8303614,40.1571128 18.3514664,40.2810321 18.9829403,39.6018644 C20.0599883,38.4433174 21.1024911,37.2549847 22.1593389,36.0792969 C22.2904934,35.9337409 22.447996,35.8027967 22.5472401,35.6389759 C22.879225,35.0915954 23.3710545,34.9654282 23.9960877,35.0123545 C24.6304892,35.0598429 25.2719168,35.0227514 26,35.0227514 C25.8749933,35.1879771 25.8161495,35.2793009 25.7438388,35.3599467 C24.0844999,37.2063724 22.4248683,39.052798 20.7628946,40.8969756 C20.2865811,41.4255294 19.7031192,41.7913863 18.9849896,41.9459342 C18.1553202,42.1246478 17.4784692,41.8621974 17.1090116,41.1304834 C16.8548997,40.6263764 16.6845159,40.0818058 16.5003726,39.5476322 C16.0184968,38.1496764 15.5497951,36.7475057 15.0772875,35.3467399 C15.0450844,35.2523252 15.0260553,35.1542576 15,35.0547849" id="Fill-6" fill="#FFFFFF"></path>
            <path d="M48.957915,46.3419866 C48.0225318,46.524455 47.0733125,46.6599323 46.1558011,46.904506 C45.4530387,47.0919209 44.7756426,47.3873328 44.1120826,47.6857676 C39.6110017,49.7113321 35.3021859,49.3914627 31.1743935,46.7539146 C31.1098246,46.7126943 31.0524622,46.6610316 31,46.6206357 C31.8094163,46.880873 32.610185,47.1870023 33.4380495,47.3953021 C36.3168388,48.1196798 39.1474898,47.9363869 41.8962767,46.8454236 C43.2510689,46.3076364 44.6525583,45.9869426 46.1108335,46.0004079 C47.0747538,46.0094764 48.0372328,46.1691362 49,46.2611949 C48.9861638,46.2884002 48.9720394,46.315056 48.957915,46.3419866" id="Fill-8" fill="#FF787D"></path>
            <g id="Group-12" transform="translate(5.000000, 46.000000)">
                <mask id="mask-2" fill="white">
                    <use xlink:href="#path-1"></use>
                </mask>
                <g id="Clip-11"></g>
                <path d="M0.146457143,0.424663636 C2.12417143,-0.130336364 4.11474286,-0.113427273 6.09074286,0.485209091 C7.23102857,0.830481818 8.3436,1.28239091 9.50502857,1.53575455 C12.2447429,2.13384545 14.9176,1.81666364 17.4998857,0.771845455 C17.6041714,0.729845455 17.7101714,0.691936364 17.8561714,0.714027273 C17.7058857,0.816572727 17.5610286,0.928118182 17.4041714,1.02084545 C13.4436,3.3693 9.33502857,3.6513 5.11388571,1.74139091 C3.58617143,1.0503 2.0276,0.547390909 0.334457143,0.456572727 C0.271314286,0.453027273 0.209314286,0.435572727 0.146457143,0.424663636" id="Fill-10" fill="#FF787D" mask="url(#mask-2)"></path>
            </g>
            <path d="M29,35.0088521 C28.8127272,35.6726474 28.6399926,36.2932691 28.4628226,36.9122717 C28.0168176,38.4713813 27.5612025,40.0277925 27.1270252,41.5912194 C27.0400419,41.9047683 26.9087045,42.0162103 26.6066038,41.9981313 C26.0920963,41.9679098 25.5748783,41.9900363 25,41.9900363 C25.1480934,41.4614285 25.2809093,40.9757246 25.4206247,40.4921794 C25.91468,38.7816921 26.4161276,37.0733635 26.9020514,35.3601779 C26.9764677,35.0970883 27.0770036,34.9880747 27.3428818,35.0010268 C27.8793199,35.0274707 28.4177293,35.0088521 29,35.0088521" id="Fill-13" fill="#FFFFFF"></path>
        </g>
    </g>
</svg>