<?xml version="1.0" encoding="UTF-8"?>
<svg width="40px" height="40px" viewBox="0 0 40 40" version="1.1" xmlns="http://www.w3.org/2000/svg" xmlns:xlink="http://www.w3.org/1999/xlink">
    <!-- Generator: Sketch 49.3 (51167) - http://www.bohemiancoding.com/sketch -->
    <title>16-icon@svg</title>
    <desc>Created with Sketch.</desc>
    <defs></defs>
    <g id="16-icon" stroke="none" stroke-width="1" fill="none" fill-rule="evenodd" stroke-linecap="round" stroke-linejoin="round">
        <g transform="translate(2.000000, 6.000000)" id="Path-80" stroke="#C8132D" stroke-width="2">
            <path d="M5.81205271,28.2607055 C6.73463619,27.0226758 9.03013373,23.3484034 9.71364201,21.9316654 C10.1424721,20.9635771 9.32822865,20.286552 8.8187692,20.2897579 C7.84909896,20.2897579 5.19651439,20.4991532 5.05643244,19.7459128 C4.94957032,19.1713001 7.23369248,15.7940864 8.20450502,14.336394 C8.38034508,14.072367 9.19492708,13.3661068 9.54500699,14.336394 C11.2830204,17.1648551 15.6550822,26.12533 16.4409306,27.4887657 C17.3277035,29.0273039 18.1506599,29.9302226 19.6400158,27.4887657 C21.1293718,25.0473089 21.8554558,24.1980358 22.3708078,23.2317178 C22.8861599,22.2653997 22.9846392,21.3288073 21.3123275,21.3288073 C19.6400158,21.3288073 18.8081068,21.3288073 18.0907459,21.3288073 C17.373385,21.3288073 16.9932655,21.1963709 17.841742,19.7459128 C18.5820308,18.4804001 19.6599562,16.531877 20.8062302,14.6033419 C21.163252,14.0257893 21.6000912,14.2191181 21.8476932,14.6189603 C23.4667988,17.233587 27.8051608,24.3111005 30.2038531,27.8122392 C30.7449415,28.6719149 31.2745748,28.6285139 31.6478417,27.8122392 C33.1931306,25.1942553 35.2185207,21.2605455 35.7323042,20.2897579 C36.3282302,19.1637629 35.9013784,17.5160653 34.7284681,15.7947146 C33.3283585,13.6531695 27.0893314,3.31418939 25.2985343,0.311975208 C25.0951269,-0.0290308241 24.6303372,0.00651659875 24.5040864,0.219213045 C22.8245592,3.04873708 20.6784658,6.65215325 20.0460606,7.62780579 C19.3661173,8.67679852 18.2952043,11.0272203 16.7266517,7.97847637 C15.3570335,5.3163947 13.8624917,2.60784024 12.5548214,0.482799933 C12.1886866,-0.27494634 11.8477268,-0.027947061 11.5436437,0.454235621 C9.1592265,4.88815297 2.42283108,15.6815619 1.56318128,17.1076105 C0.0806614739,19.7910546 -0.260479804,20.6922918 0.177025261,21.9316654 C0.791315731,23.5370864 3.05072981,27.5644734 3.54748788,28.2607055 C4.04424594,28.9569375 4.88946922,29.4987352 5.81205271,28.2607055 Z"></path>
        </g>
    </g>
</svg>