<?xml version="1.0" encoding="UTF-8"?>
<svg width="68px" height="68px" viewBox="0 0 68 68" version="1.1" xmlns="http://www.w3.org/2000/svg" xmlns:xlink="http://www.w3.org/1999/xlink">
    <!-- Generator: Sketch 49.3 (51167) - http://www.bohemiancoding.com/sketch -->
    <title>icon-1@svg</title>
    <desc>Created with Sketch.</desc>
    <defs>
        <linearGradient x1="3.67141068%" y1="0%" x2="3.67141068%" y2="99.8419436%" id="linearGradient-1">
            <stop stop-color="#FFBD7B" offset="0%"></stop>
            <stop stop-color="#FF7E2A" offset="100%"></stop>
        </linearGradient>
        <path d="M12.2192156,8.14285714 C12.5651227,3.58798191 16.3642637,0 21,0 C25.6357363,0 29.4348773,3.58798191 29.7807844,8.14285714 L40,8.14285714 C41.1045695,8.14285714 42,9.03828764 42,10.1428571 L42,55 C42,56.1045695 41.1045695,57 40,57 L2,57 C0.8954305,57 1.3527075e-16,56.1045695 0,55 L0,10.1428571 C-1.3527075e-16,9.03828764 0.8954305,8.14285714 2,8.14285714 L12.2192156,8.14285714 Z M21,11.3418367 C22.3896197,11.3418367 23.516129,10.2134116 23.516129,8.82142857 C23.516129,7.42944558 22.3896197,6.30102041 21,6.30102041 C19.6103803,6.30102041 18.483871,7.42944558 18.483871,8.82142857 C18.483871,10.2134116 19.6103803,11.3418367 21,11.3418367 Z" id="path-2"></path>
        <filter x="-16.7%" y="-8.8%" width="133.3%" height="124.6%" filterUnits="objectBoundingBox" id="filter-3">
            <feOffset dx="0" dy="2" in="SourceAlpha" result="shadowOffsetOuter1"></feOffset>
            <feGaussianBlur stdDeviation="2" in="shadowOffsetOuter1" result="shadowBlurOuter1"></feGaussianBlur>
            <feColorMatrix values="0 0 0 0 1   0 0 0 0 0.537254902   0 0 0 0 0.219607843  0 0 0 0.6 0" type="matrix" in="shadowBlurOuter1"></feColorMatrix>
        </filter>
    </defs>
    <g id="icon-1" stroke="none" stroke-width="1" fill="none" fill-rule="evenodd">
        <g id="Group-5">
            <rect id="Rectangle-54-Copy" x="0" y="0" width="68" height="68"></rect>
            <g id="Group-5-Copy-2" transform="translate(13.000000, 3.000000)">
                <g id="Combined-Shape">
                    <use fill="black" fill-opacity="1" filter="url(#filter-3)" xlink:href="#path-2"></use>
                    <use fill="url(#linearGradient-1)" fill-rule="evenodd" xlink:href="#path-2"></use>
                </g>
                <rect id="Rectangle-52" fill="#FFFFFF" x="7" y="20" width="29" height="4" rx="2"></rect>
                <rect id="Rectangle-52-Copy" fill="#FFFFFF" x="7" y="31" width="29" height="4" rx="2"></rect>
                <rect id="Rectangle-52-Copy-2" fill="#FFFFFF" x="7" y="42" width="16" height="4" rx="2"></rect>
            </g>
            <circle id="Oval-5" fill="#FFFFFF" cx="34" cy="12" r="3"></circle>
        </g>
    </g>
</svg>