<?xml version="1.0" encoding="UTF-8"?>
<svg width="68px" height="68px" viewBox="0 0 68 68" version="1.1" xmlns="http://www.w3.org/2000/svg" xmlns:xlink="http://www.w3.org/1999/xlink">
    <!-- Generator: Sketch 49.3 (51167) - http://www.bohemiancoding.com/sketch -->
    <title>icon-8@svg</title>
    <desc>Created with Sketch.</desc>
    <defs>
        <linearGradient x1="50%" y1="50%" x2="203.371193%" y2="163.022371%" id="linearGradient-1">
            <stop stop-color="#BBBBBB" offset="0%"></stop>
            <stop stop-color="#C1C1C1" offset="13.5682231%"></stop>
            <stop stop-color="#E7E7E7" offset="100%"></stop>
        </linearGradient>
        <linearGradient x1="56.3003318%" y1="50%" x2="206.40015%" y2="192.035293%" id="linearGradient-2">
            <stop stop-color="#BBBBBB" offset="0%"></stop>
            <stop stop-color="#E0E0E0" offset="84.3557526%"></stop>
            <stop stop-color="#E7E7E7" offset="100%"></stop>
        </linearGradient>
        <linearGradient x1="50%" y1="41.4102195%" x2="183.850193%" y2="168.851686%" id="linearGradient-3">
            <stop stop-color="#BBBBBB" offset="0%"></stop>
            <stop stop-color="#E7E7E7" offset="100%"></stop>
        </linearGradient>
        <linearGradient x1="50%" y1="44.614948%" x2="109.175975%" y2="100%" id="linearGradient-4">
            <stop stop-color="#BDBDBD" offset="0%"></stop>
            <stop stop-color="#DADADA" offset="100%"></stop>
        </linearGradient>
    </defs>
    <g id="icon-8" stroke="none" stroke-width="1" fill="none" fill-rule="evenodd">
        <rect id="Rectangle-8" fill="url(#linearGradient-1)" x="8" y="9" width="22" height="22" rx="2"></rect>
        <rect id="Rectangle-8" fill="url(#linearGradient-2)" x="8" y="37" width="22" height="22" rx="2"></rect>
        <rect id="Rectangle-8" fill="url(#linearGradient-3)" x="36" y="9" width="22" height="22" rx="2"></rect>
        <path d="M48.7533889,35.7262775 L59.2737225,46.2466111 C60.2420925,47.214981 60.2420925,48.785019 59.2737225,49.7533889 L48.7533889,60.2737225 C47.785019,61.2420925 46.214981,61.2420925 45.2466111,60.2737225 L34.7262775,49.7533889 C33.7579075,48.785019 33.7579075,47.214981 34.7262775,46.2466111 L45.2466111,35.7262775 C46.214981,34.7579075 47.785019,34.7579075 48.7533889,35.7262775 Z" id="Rectangle-8-Copy-3" fill="url(#linearGradient-4)"></path>
    </g>
</svg>