<?xml version="1.0" encoding="UTF-8"?>
<svg width="68px" height="68px" viewBox="0 0 68 68" version="1.1" xmlns="http://www.w3.org/2000/svg" xmlns:xlink="http://www.w3.org/1999/xlink">
    <!-- Generator: Sketch 49.3 (51167) - http://www.bohemiancoding.com/sketch -->
    <title>icon-5@svg</title>
    <desc>Created with Sketch.</desc>
    <defs>
        <filter x="-12.5%" y="-9.8%" width="125.0%" height="127.5%" filterUnits="objectBoundingBox" id="filter-1">
            <feOffset dx="0" dy="2" in="SourceAlpha" result="shadowOffsetOuter1"></feOffset>
            <feGaussianBlur stdDeviation="2" in="shadowOffsetOuter1" result="shadowBlurOuter1"></feGaussianBlur>
            <feColorMatrix values="0 0 0 0 1   0 0 0 0 0.454901961   0 0 0 0 0.454901961  0 0 0 0.450152853 0" type="matrix" in="shadowBlurOuter1" result="shadowMatrixOuter1"></feColorMatrix>
            <feMerge>
                <feMergeNode in="shadowMatrixOuter1"></feMergeNode>
                <feMergeNode in="SourceGraphic"></feMergeNode>
            </feMerge>
        </filter>
        <linearGradient x1="50%" y1="-6.03476268%" x2="50%" y2="85.1125624%" id="linearGradient-2">
            <stop stop-color="#FF9F9F" offset="0%"></stop>
            <stop stop-color="#FF6065" offset="100%"></stop>
        </linearGradient>
        <polygon id="path-3" points="0.154593651 0.0218351567 18.848181 0.0218351567 18.848181 3 0.154593651 3"></polygon>
    </defs>
    <g id="icon-5" stroke="none" stroke-width="1" fill="none" fill-rule="evenodd">
        <g id="Page-1" filter="url(#filter-1)" transform="translate(6.000000, 9.000000)">
            <g id="Group-3">
                <g id="Group">
                    <path d="M30.6590565,2.4831599 C33.5768391,5.38965356 35.836013,8.71295196 36.828187,12.8135432 C36.8577087,12.9348405 36.9036652,13.0524247 36.9477957,13.1904313 C37.7196217,12.8689315 38.4658826,12.5297942 39.2316217,12.244498 C41.4798391,11.4071753 43.8068826,10.972733 46.1993609,10.90899 C46.3183609,10.9058957 46.4891,11.0070799 46.5551435,11.1122868 C48.1030565,13.5688665 49.1296217,16.2355504 49.5913174,19.1163612 C50.1391435,22.5352741 49.9145348,25.9012741 48.8496217,29.2004368 C48.8240565,29.2805796 48.8118826,29.3650546 48.7829696,29.4937782 C48.9853609,29.5590683 49.1889696,29.633332 49.3974478,29.6902675 C51.6633174,30.3091312 53.733187,31.3423243 55.6435783,32.7205339 C55.8788391,32.8901025 55.9771435,33.0318223 55.8614913,33.3393976 C53.4945783,39.651808 49.0672304,43.6620452 42.7161,45.529776 C42.6911435,45.5372024 46.5551435,44.5717145 50.9599347,48.3388984 C47.355509,48.1714395 44.5372549,50.2462709 41.0483888,50.4076574 C36.870905,50.6008976 32.3124487,48.8963634 32.144382,48.7527361 C28.757207,45.8581056 23.8971863,48.3511936 23.5866523,48.5941215 C21.7536193,50.0280869 16.5366088,50.801437 13.4805543,49.8622494 C7.98067149,48.1720238 5.03059791,48.0989948 5.44395234,48.3388984 C5.23121321,48.2807252 12.8358391,45.4357087 12.6258391,45.3676337 C6.56596957,43.3965526 2.33553478,39.4454169 0.0574913043,33.3737446 C-0.0572478261,33.0677164 -0.00581304348,32.9095967 0.25836087,32.7196056 C2.22901304,31.3017887 4.3701,30.2596221 6.70444783,29.6299282 C6.7984913,29.6045548 6.89253478,29.5807286 6.98536087,29.5513325 C6.90836087,28.69761 6.67036087,27.9190794 6.50875217,27.1244583 C5.35223043,21.4377192 6.29996957,16.1266304 9.29505652,11.1868598 C9.42379565,10.9742801 9.54918696,10.8928996 9.82279565,10.9028014 C12.9055348,11.0132686 15.8391435,11.7308411 18.6278826,13.0678962 C18.7258826,13.1146205 18.8302739,13.1489674 18.9675348,13.2034274 C19.0719261,12.8163281 19.1650565,12.4493419 19.2688391,12.0857595 C20.2442739,8.68293707 22.0874043,5.8005791 24.4887087,3.28118472 C25.5207522,2.19786371 26.6751435,1.23460226 27.7729261,0.215643078 C27.8225348,0.169537728 27.8605783,0.111364534 27.9041,0.0587611142 C28.8801435,0.864521732 29.807187,1.63500712 30.6590565,2.4831599 Z" id="Fill-1" fill="url(#linearGradient-2)"></path>
                    <path d="M50.7711711,48.2334963 C49.8011441,48.4234124 48.8167685,48.5644194 47.8652752,48.8189756 C47.1364846,49.0140401 46.4339997,49.3215097 45.7458635,49.6321255 C41.0780758,51.740366 36.6096743,51.4074408 32.3290006,48.6622376 C32.2620404,48.6193349 32.2025534,48.5655635 32.1481481,48.5235188 C32.9875428,48.7943781 33.8179696,49.1130024 34.6764958,49.3298042 C37.6619069,50.0837483 40.5973968,49.8929742 43.4479907,48.7574817 C44.8529604,48.197744 46.3063567,47.8639607 47.8186422,47.8779756 C48.8182632,47.8874142 49.8163895,48.0535908 50.8148148,48.1494069 C50.8004662,48.1777227 50.7858186,48.2054665 50.7711711,48.2334963" id="Fill-8" fill="#FF4B52"></path>
                    <path d="M5.33706667,48.3195479 C7.38802963,47.7418948 9.45232593,47.7594941 11.5015111,48.3825646 C12.6840296,48.7419301 13.8378074,49.2122844 15.0422519,49.4759894 C17.883437,50.0984922 20.6552889,49.7683642 23.3332148,48.6809004 C23.441363,48.6371861 23.5512889,48.5977297 23.7026963,48.6207223 C23.5468444,48.7274532 23.3966222,48.8435516 23.2339556,48.9400636 C19.1266963,51.3843735 14.8659556,51.6778837 10.4884741,49.6900191 C8.90417778,48.9707204 7.28788148,48.4472844 5.53202963,48.3527594 C5.46654815,48.3490692 5.40225185,48.3309022 5.33706667,48.3195479" id="Fill-10" fill="#FF4B52"></path>
                </g>
            </g>
            <path d="M10.5919756,31.2974888 C14.1364836,30.3777668 17.7231206,29.7222099 21.3572646,29.4149885 C23.3418066,29.2469717 25.3311292,29.1420826 27.3198543,29.0511139 C30.6118874,28.8999312 33.8946582,29.0915804 37.1612944,29.5273234 C39.6654267,29.8617383 42.1558148,30.3133442 44.5042792,31.3764793 C45.0770535,31.6357885 45.6348885,31.9792679 46.130277,32.3832851 C47.1960496,33.2518575 47.2779172,34.4270039 46.4000815,35.5315767 C45.6883713,36.4270188 44.7600407,36.9925782 43.782709,37.4645792 C41.7366169,38.4522848 39.5739979,38.9945355 37.3686525,39.3263606 C35.9658484,39.53711 34.5495989,39.64815 33.1378312,39.7805563 C32.8608558,39.8064548 32.7727137,39.9495443 32.7075781,40.2007602 C32.3299116,41.6646753 31.9316288,43.1221157 31.5677064,44.5902393 C31.4864364,44.9172084 31.3516836,45.0081771 31.0588725,44.9994363 C30.3785349,44.9800124 29.6975998,44.9936091 28.9557121,44.9936091 C29.0402688,44.6617841 29.1077946,44.3833747 29.1824913,44.1072315 C29.8144254,41.7705355 30.4511401,39.4348108 31.0753058,37.0955249 C31.1500025,36.8148495 31.2506936,36.7051044 31.5449986,36.6957162 C33.7670762,36.623524 35.991544,36.5730218 38.2094386,36.4179543 C40.3173795,36.2696852 42.4244242,36.0291524 44.4403388,35.2764761 C44.910928,35.1006897 45.3767367,34.8562722 45.7854771,34.5506694 C46.4676074,34.0398207 46.4894188,33.4392982 45.90051,32.8164383 C45.2049343,32.0799485 44.3067811,31.751037 43.412811,31.4321612 C41.5400152,30.7643025 39.6038766,30.4285927 37.6513048,30.1838514 C34.0664606,29.734188 30.4660794,29.5606678 26.8642044,29.6814197 C23.8404818,29.7827478 20.817058,30.0028854 17.8020003,30.2744963 C14.5108635,30.5703872 11.272612,31.2528138 8.0702149,32.1272133 C8.02211022,32.0857756 8.01105511,32.0566398 8,32.0271802 C8.86379268,31.7830864 9.72429871,31.5228061 10.5919756,31.2974888 Z" id="Fill-4" fill="#FFFFFF"></path>
            <path d="M16,36.0547849 C17.0097142,35.9370476 17.0091287,35.9373286 17.311838,36.8061686 C17.7181828,37.9723026 18.1254059,39.1387176 18.5323362,40.3045705 C18.8303614,41.1571128 19.3514664,41.2810321 19.9829403,40.6018644 C21.0599883,39.4433174 22.1024911,38.2549847 23.1593389,37.0792969 C23.2904934,36.9337409 23.447996,36.8027967 23.5472401,36.6389759 C23.879225,36.0915954 24.3710545,35.9654282 24.9960877,36.0123545 C25.6304892,36.0598429 26.2719168,36.0227514 27,36.0227514 C26.8749933,36.1879771 26.8161495,36.2793009 26.7438388,36.3599467 C25.0844999,38.2063724 23.4248683,40.052798 21.7628946,41.8969756 C21.2865811,42.4255294 20.7031192,42.7913863 19.9849896,42.9459342 C19.1553202,43.1246478 18.4784692,42.8621974 18.1090116,42.1304834 C17.8548997,41.6263764 17.6845159,41.0818058 17.5003726,40.5476322 C17.0184968,39.1496764 16.5497951,37.7475057 16.0772875,36.3467399 C16.0450844,36.2523252 16.0260553,36.1542576 16,36.0547849" id="Fill-6" fill="#FFFFFF"></path>
            <g id="Group-12" transform="translate(5.000000, 48.000000)">
                <mask id="mask-4" fill="white">
                    <use xlink:href="#path-3"></use>
                </mask>
                <g id="Clip-11"></g>
            </g>
            <path d="M30,36.0088521 C29.8127272,36.6726474 29.6399926,37.2932691 29.4628226,37.9122717 C29.0168176,39.4713813 28.5612025,41.0277925 28.1270252,42.5912194 C28.0400419,42.9047683 27.9087045,43.0162103 27.6066038,42.9981313 C27.0920963,42.9679098 26.5748783,42.9900363 26,42.9900363 C26.1480934,42.4614285 26.2809093,41.9757246 26.4206247,41.4921794 C26.91468,39.7816921 27.4161276,38.0733635 27.9020514,36.3601779 C27.9764677,36.0970883 28.0770036,35.9880747 28.3428818,36.0010268 C28.8793199,36.0274707 29.4177293,36.0088521 30,36.0088521" id="Fill-13" fill="#FFFFFF"></path>
        </g>
    </g>
</svg>