<?xml version="1.0" encoding="UTF-8"?>
<svg width="40px" height="40px" viewBox="0 0 40 40" version="1.1" xmlns="http://www.w3.org/2000/svg" xmlns:xlink="http://www.w3.org/1999/xlink">
    <!-- Generator: Sketch 49.3 (51167) - http://www.bohemiancoding.com/sketch -->
    <title>17-icon@svg</title>
    <desc>Created with Sketch.</desc>
    <defs></defs>
    <g id="17-icon" stroke="none" stroke-width="1" fill="none" fill-rule="evenodd">
        <g id="Group-11" transform="translate(3.000000, 3.000000)" stroke="#CA162E" stroke-width="2">
            <g id="Group-2">
                <path d="M7,2 C4.23857625,2 2,4.23857625 2,7 L2,31 C2,32.6568542 3.34314575,34 5,34 L29.3559151,34 C31.0127693,34 32.3559151,32.6568542 32.3559151,31 L32.3559151,7 C32.3559151,4.23857625 30.1173388,2 27.3559151,2 L7,2 Z" id="Rectangle-25"></path>
                <path d="M8.47658028,8.6714852 C7.6326599,11.8288199 6.2151784,13.4074873 4.22413579,13.4074873 C1.23757188,13.4074873 0.0169922683,10.8723212 0.0674875606,8.6714852 C0.0892311232,7.7237926 0.0875451085,6.18231443 0.0624295166,4.04705067 L0.0624231521,4.04705074 C0.0364403741,1.83806103 1.80611715,0.0262578488 4.01510686,0.000275070753 C4.03078726,9.06333931e-05 4.0464686,-1.59309215e-06 4.06215008,-1.60391891e-06 L29.7765767,-2.07235653e-05 C31.9857164,-2.22487924e-05 33.7765793,1.79083813 33.7765808,3.99997788 C33.7765808,3.99997929 33.7765808,3.99998069 33.7765808,3.9999821 C33.77658,6.05070519 33.7765797,7.60787289 33.7765797,8.6714852 C33.7765797,11.1787739 32.8874926,13.4074873 29.7279644,13.4074873 C27.6216123,13.4074873 26.082113,11.8288199 25.1094664,8.6714852 C24.4987944,11.8288199 23.1598612,13.4074873 21.0926667,13.4074873 C19.0254722,13.4074873 17.6352612,11.8288199 16.9220336,8.6714852 C16.3255796,11.8288199 14.9719623,13.4074873 12.8611816,13.4074873 C10.750401,13.4074873 9.28886721,11.8288199 8.47658028,8.6714852 Z" id="Path-12" fill="#FFFFFF" stroke-linecap="round" stroke-linejoin="round"></path>
            </g>
        </g>
    </g>
</svg>