<?xml version="1.0" encoding="UTF-8"?>
<svg width="40px" height="40px" viewBox="0 0 40 40" version="1.1" xmlns="http://www.w3.org/2000/svg" xmlns:xlink="http://www.w3.org/1999/xlink">
    <!-- Generator: Sketch 49.3 (51167) - http://www.bohemiancoding.com/sketch -->
    <title>17-icon2@svg</title>
    <desc>Created with Sketch.</desc>
    <defs>
        <path d="M8,2 L28.3559151,2 C31.6696236,2 34.3559151,4.6862915 34.3559151,8 L34.3559151,32 C34.3559151,34.209139 32.5650541,36 30.3559151,36 L6,36 C3.790861,36 2,34.209139 2,32 L2,8 C2,4.6862915 4.6862915,2 8,2 Z" id="path-1"></path>
        <path d="M9.17021209,9.74288986 C8.29566779,13.0147971 6.82674916,14.6507508 4.76345622,14.6507508 C1.66851679,14.6507508 0.403645164,12.0235892 0.455972814,9.74288986 C0.478996398,8.73940753 0.47667053,7.09348343 0.448995212,4.80511755 L0.448987172,4.80511765 C0.422271918,2.59613575 2.19134857,0.783745107 4.40033047,0.757029852 C4.41645382,0.756834857 4.43257819,0.756737358 4.44870272,0.756737358 L31.3882901,0.756737357 C33.5974291,0.756737357 35.3882901,2.54759836 35.3882901,4.75673736 C35.3882901,6.41878819 35.3882901,8.08083902 35.3882901,9.74288986 C35.3882901,12.3411624 34.46694,14.6507508 31.1927599,14.6507508 C29.0099732,14.6507508 27.4146089,13.0147971 26.4066672,9.74288986 C26.4066672,13.0147971 25.0191472,14.6507508 22.2441072,14.6507508 C19.141503,14.7116426 17.7008444,13.0756889 17.9221314,9.74288986 C18.1457964,13.0147971 16.7430595,14.6507508 13.7139205,14.6507508 C10.6847816,14.6507508 9.17021209,13.0147971 9.17021209,9.74288986 Z" id="path-2"></path>
    </defs>
    <g id="17-icon2" stroke="none" stroke-width="1" fill="none" fill-rule="evenodd">
        <g id="Group-4">
            <rect id="Rectangle-10" x="0" y="0" width="40" height="40"></rect>
            <g id="Group-11" transform="translate(2.000000, 2.000000)">
                <g id="Group-2">
                    <g id="Rectangle-25">
                        <use fill="#C8132D" fill-rule="evenodd" xlink:href="#path-1"></use>
                        <path stroke="#CA162E" stroke-width="2" d="M8,3 C5.23857625,3 3,5.23857625 3,8 L3,32 C3,33.6568542 4.34314575,35 6,35 L30.3559151,35 C32.0127693,35 33.3559151,33.6568542 33.3559151,32 L33.3559151,8 C33.3559151,5.23857625 31.1173388,3 28.3559151,3 L8,3 Z"></path>
                    </g>
                    <path d="M9.47658028,9.6714852 C8.6326599,12.8288199 7.2151784,14.4074873 5.22413579,14.4074873 C2.23757188,14.4074873 1.01699227,11.8723212 1.06748756,9.6714852 C1.08923112,8.7237926 1.08754511,7.18231443 1.06242952,5.04705067 L1.06242315,5.04705074 C1.03644037,2.83806103 2.80611715,1.02625785 5.01510686,1.00027507 C5.03078726,1.00009063 5.0464686,0.999998407 5.06215008,0.999998396 L30.7765767,0.999979276 C32.9857164,0.999977751 34.7765793,2.79083813 34.7765808,4.99997788 C34.7765808,4.99997929 34.7765808,4.99998069 34.7765808,4.9999821 C34.77658,7.05070519 34.7765797,8.60787289 34.7765797,9.6714852 C34.7765797,12.1787739 33.8874926,14.4074873 30.7279644,14.4074873 C28.6216123,14.4074873 27.082113,12.8288199 26.1094664,9.6714852 C25.4987944,12.8288199 24.1598612,14.4074873 22.0926667,14.4074873 C20.0254722,14.4074873 18.6352612,12.8288199 17.9220336,9.6714852 C17.3255796,12.8288199 15.9719623,14.4074873 13.8611816,14.4074873 C11.750401,14.4074873 10.2888672,12.8288199 9.47658028,9.6714852 Z" id="Path-12" stroke="#CA162E" stroke-width="2" fill="#FFFFFF" stroke-linecap="round" stroke-linejoin="round"></path>
                    <g id="Group-3">
                        <mask id="mask-3" fill="white">
                            <use xlink:href="#path-2"></use>
                        </mask>
                        <g id="Mask"></g>
                        <g mask="url(#mask-3)">
                            <g transform="translate(7.000000, 2.000000)">
                                <g id="Group" stroke-width="1" fill="none">
                                    <rect id="Rectangle-25" fill="#CA162E" x="0" y="0" width="4" height="35.0244981"></rect>
                                    <rect id="Rectangle-25-Copy" fill="#CA162E" x="9" y="0" width="4" height="35.0244981"></rect>
                                </g>
                                <rect id="Rectangle-25-Copy" fill="#CA162E" x="18" y="0" width="4" height="35.0244981"></rect>
                            </g>
                        </g>
                    </g>
                </g>
            </g>
        </g>
    </g>
</svg>