<?xml version="1.0" encoding="UTF-8"?>
<svg width="54px" height="54px" viewBox="0 0 54 54" version="1.1" xmlns="http://www.w3.org/2000/svg" xmlns:xlink="http://www.w3.org/1999/xlink">
    <!-- Generator: Sketch 49.3 (51167) - http://www.bohemiancoding.com/sketch -->
    <title>设置@svg</title>
    <desc>Created with Sketch.</desc>
    <defs></defs>
    <g id="设置" stroke="none" stroke-width="1" fill="none" fill-rule="evenodd">
        <path d="M17.89506,13.8974379 L20.9567159,11.6590294 C21.214275,11.4707252 21.3665198,11.1708229 21.3665198,10.8517695 L21.3665198,5.506558 C21.3665198,4.95427325 21.8142351,4.506558 22.3665198,4.506558 L33.0755183,4.506558 C33.627803,4.506558 34.0755183,4.95427325 34.0755183,5.506558 L34.0755183,10.8234631 C34.0755183,11.1582407 34.2430411,11.4708097 34.5218151,11.6561772 L37.9058733,13.906366 C38.2545932,14.1382432 38.7108611,14.1282745 39.0491209,13.881388 L42.8295183,11.1221798 C43.2683819,10.8018653 43.8827083,10.8905721 44.2130292,11.3219545 L49.3629843,18.0475348 C49.6872841,18.4710539 49.6220727,19.0745592 49.2147885,19.4190274 L43.9731193,23.8522671 C43.7484662,24.0422716 43.6188901,24.3215693 43.6188901,24.6157984 L43.6188901,27.9923882 C43.6188901,28.2708109 43.7349659,28.5366282 43.9391849,28.7258736 L48.8906169,33.3142595 C49.2432562,33.6410427 49.3134423,34.1725169 49.0577221,34.5796397 L44.227173,42.2701816 C43.9334156,42.7378621 43.3161483,42.8788546 42.8484678,42.5850972 C42.8106878,42.5613671 42.7745383,42.5351352 42.7402614,42.5065775 L37.9578062,38.5220761 C37.619955,38.2405955 37.1378687,38.212854 36.7699592,38.453722 L33.2788429,40.7393329 C32.9966361,40.9240918 32.8265887,41.2386699 32.8265887,41.5759777 L32.8265887,47.1095935 C32.8265887,47.6618782 32.3788735,48.1095935 31.8265887,48.1095935 L22.8897764,48.1095935 C22.3374916,48.1095935 21.8897764,47.6618782 21.8897764,47.1095935 L21.8897764,40.9479841 C21.8897764,40.6258178 21.7345634,40.3233834 21.472823,40.1355454 L19.1652106,38.4794876 C18.808186,38.2232689 18.3257286,38.2301564 17.9761634,38.4964621 L12.614801,42.5808559 C12.1754783,42.9155408 11.5480211,42.830715 11.2133362,42.3913923 C11.1967994,42.3696854 11.1811581,42.3473107 11.1664515,42.3243244 L5.91814527,34.1212498 C5.63976335,33.6861404 5.73857938,33.1106107 6.14615264,32.7932769 L11.3657486,28.7293344 C11.6090981,28.5398641 11.7514071,28.2487062 11.7514071,27.9402941 L11.7514071,25.3318071 C11.7514071,25.0221915 11.6079908,24.7300379 11.3630414,24.5406665 L6.15947147,20.5177636 C5.746065,20.1981572 5.64842963,19.6141444 5.93539748,19.1774493 L10.964127,11.5249496 C11.2602635,11.0743019 11.8603765,10.9396123 12.3206949,11.2204809 L16.7840042,13.9438203 C17.1296004,14.1546898 17.5682416,14.1363781 17.89506,13.8974379 Z" id="Path-115" stroke="#FFFFFF" stroke-width="3" stroke-linecap="round" stroke-linejoin="round"></path>
        <circle id="Oval" stroke="#FFFFFF" stroke-width="3" cx="27.5" cy="26.5" r="7.5"></circle>
    </g>
</svg>